<?xml version="1.0" encoding="utf-8"?>
<!-- Generator: Adobe Illustrator 15.0.0, SVG Export Plug-In . SVG Version: 6.00 Build 0)  -->
<!DOCTYPE svg PUBLIC "-//W3C//DTD SVG 1.1//EN" "http://www.w3.org/Graphics/SVG/1.1/DTD/svg11.dtd">
<svg version="1.1" id="Capa_1" xmlns="http://www.w3.org/2000/svg" xmlns:xlink="http://www.w3.org/1999/xlink" x="0px" y="0px"
	 width="60px" height="60px" viewBox="230 230 60 60" enable-background="new 230 230 60 60" xml:space="preserve">
<g>
	<path fill="#FFFFFF" d="M253.459,258.871l3.628-3.627v16.548c0,1.607,1.304,2.912,2.914,2.912c1.608,0,2.913-1.305,2.913-2.912
		v-16.548l3.628,3.627c0.568,0.569,1.314,0.854,2.061,0.854c0.744,0,1.489-0.285,2.06-0.854c1.138-1.138,1.138-2.983,0-4.121
		l-8.602-8.601c-0.547-0.547-1.288-0.853-2.061-0.853s-1.514,0.306-2.061,0.853l-8.602,8.602c-1.138,1.138-1.138,2.982,0,4.12
		C250.476,260.007,252.32,260.007,253.459,258.871z"/>
</g>
</svg>
